<svg xmlns="http://www.w3.org/2000/svg" viewBox="0 0 1293.67 231.48"><title>Asset 1</title><g id="Layer_2" data-name="Layer 2"><g id="Layer_1-2" data-name="Layer 1"><path d="M253,51.71a8.62,8.62,0,0,1,6.38-2.52,8.25,8.25,0,0,1,6.27,2.52,8.89,8.89,0,0,1,2.39,6.4V171a8.88,8.88,0,0,1-2.39,6.4,8.25,8.25,0,0,1-6.27,2.52,8.61,8.61,0,0,1-8.89-8.92V58.11A8.7,8.7,0,0,1,253,51.71Z"/><path d="M512.2,57.46a46.1,46.1,0,0,1,18,14.24A10.43,10.43,0,0,1,532,77a7,7,0,0,1-3.64,6.15,7.35,7.35,0,0,1-4.34,1.14,10.43,10.43,0,0,1-8-3.42q-11.18-12.76-30.54-12.76-12.54,0-20.06,5.13T458,86.06A15.21,15.21,0,0,0,465,99.17q7.07,4.9,25.07,7.86,24.39,4.11,34.88,13.34a29.3,29.3,0,0,1,10.48,22.9A30,30,0,0,1,529.18,162q-6.27,8.21-17.43,12.76a66.26,66.26,0,0,1-25.3,4.56,77.83,77.83,0,0,1-27.12-4.78q-13-4.78-21-13.45a8.34,8.34,0,0,1-2.28-5.24c0-2.59,1.21-4.86,3.64-6.84a9.39,9.39,0,0,1,5.7-2.05,8.4,8.4,0,0,1,6.61,3.19,35,35,0,0,0,14.48,9.8,55.75,55.75,0,0,0,19.94,3.42q15.94,0,23.93-5.47t8.2-14.36q0-8.2-8-13.67t-25.3-8.21Q463,118,451.92,109T440.86,87.2q0-16.64,12.88-25.75T486,52.33Q501,52.33,512.2,57.46Z"/><path d="M651.37,60.65a60.58,60.58,0,0,1,22.8,22.91,64.21,64.21,0,0,1,8.32,32.36,64.9,64.9,0,0,1-8.1,32.25A60,60,0,0,1,621,179.28,58.79,58.79,0,0,1,593.82,173a56.36,56.36,0,0,1-20.28-17.2v66.78a8.59,8.59,0,0,1-8.89,8.89,8.28,8.28,0,0,1-6.27-2.51,8.89,8.89,0,0,1-2.39-6.38V171.53a6.94,6.94,0,0,1-.23-2.05V115.92a64.11,64.11,0,0,1,8.32-32.36,60.55,60.55,0,0,1,22.79-22.91,66.66,66.66,0,0,1,64.5,0Zm-8.66,96.52a44.08,44.08,0,0,0,16.64-17,48.88,48.88,0,0,0,6-24.27,48.93,48.93,0,0,0-6-24.27,45,45,0,0,0-16.64-17.1,45.53,45.53,0,0,0-23.59-6.26,44.92,44.92,0,0,0-40,23.36,48.93,48.93,0,0,0-6,24.27,51.1,51.1,0,0,0,.23,5.7,2.57,2.57,0,0,1,.23,1.14q2.28,17.78,14.93,29.17t30.65,11.4A46,46,0,0,0,642.71,157.17Z"/><path d="M810,82a53.74,53.74,0,0,0-20.17-21.77q-13-7.86-29.86-7.86-17.32,0-30.88,8.09c-1,.6-2,1.23-2.94,1.88-2.11,1.45-3.09,3.79-3.91,6.21-1.53,4.49.47,12.49,8.82,9.69A7.8,7.8,0,0,0,733.36,77q10.86-8.9,26.64-8.89,17.1,0,28,10.71T800.8,107h-100a83.5,83.5,0,0,0-.47,8.91q0,18.24,8.1,32.71a57.63,57.63,0,0,0,22.45,22.56q14.35,8.1,32.59,8.09a65.4,65.4,0,0,0,22.33-4.21,62,62,0,0,0,19.15-10.6,6.93,6.93,0,0,0,2.51-5.24,8.23,8.23,0,0,0-3-6.16,8.51,8.51,0,0,0-5-1.82,9.94,9.94,0,0,0-6.15,2.28,40.11,40.11,0,0,1-13.34,7.18,50.71,50.71,0,0,1-16.52,2.84q-19.14,0-31.91-11.62t-14.59-30.31H809a8.24,8.24,0,0,0,5.93-2.17,7.63,7.63,0,0,0,2.28-5.81Q817.21,95.87,810,82Z"/><path d="M1141.72,82a53.74,53.74,0,0,0-20.17-21.77q-13-7.86-29.86-7.86-17.32,0-30.88,8.09c-1,.6-2,1.23-2.94,1.88-2.11,1.45-3.09,3.79-3.92,6.21-1.52,4.49.48,12.49,8.83,9.69a7.8,7.8,0,0,0,2.27-1.25q10.86-8.88,26.64-8.89,17.1,0,28,10.71T1132.49,107h-100a83.5,83.5,0,0,0-.47,8.91q0,18.24,8.1,32.71a57.63,57.63,0,0,0,22.45,22.56q14.36,8.1,32.59,8.09a65.4,65.4,0,0,0,22.33-4.21,62,62,0,0,0,19.15-10.6,6.93,6.93,0,0,0,2.51-5.24,8.23,8.23,0,0,0-3-6.16,8.51,8.51,0,0,0-5-1.82,9.94,9.94,0,0,0-6.15,2.28,40.11,40.11,0,0,1-13.34,7.18,50.71,50.71,0,0,1-16.52,2.84q-19.14,0-31.91-11.62t-14.59-30.31h92.08a8.24,8.24,0,0,0,5.93-2.17,7.63,7.63,0,0,0,2.28-5.81Q1148.9,95.87,1141.72,82Z"/><path d="M941.89,74.21A7,7,0,0,1,943.71,79q0,3.65-3.87,6.38a7.72,7.72,0,0,1-4.33,1.37q-3.42,0-6.62-3.42a46.32,46.32,0,0,0-15-11.28,43.21,43.21,0,0,0-18.23-3.76,41.67,41.67,0,0,0-22.34,6,40,40,0,0,0-15.15,17,55.08,55.08,0,0,0-5.36,24.61,51.25,51.25,0,0,0,5.7,24.27,42.38,42.38,0,0,0,15.95,17,44.67,44.67,0,0,0,23.48,6.16q18.23,0,29.4-9.8a9.43,9.43,0,0,1,6.15-2.51,7.88,7.88,0,0,1,5,1.82,8,8,0,0,1,3.19,6.16,6.49,6.49,0,0,1-2.28,5Q923,179.28,897.9,179.28A61.77,61.77,0,0,1,866,171a59.86,59.86,0,0,1-22.22-22.8,64.89,64.89,0,0,1-8.09-32.25q0-18.23,7.74-32.71a57.63,57.63,0,0,1,21.43-22.67,58.65,58.65,0,0,1,30.77-8.21Q924.11,52.33,941.89,74.21Z"/><path d="M964.29,58V22.7a8.87,8.87,0,0,1,2.4-6.38A8.26,8.26,0,0,1,973,13.81a8.57,8.57,0,0,1,8.89,8.89V58h25.76a7.84,7.84,0,0,1,5.81,2.17,7.56,7.56,0,0,1,2.17,5.58,7.31,7.31,0,0,1-2.17,5.36,7.87,7.87,0,0,1-5.81,2.16H981.84v60.85q0,11.63,6.84,19t17.55,7.4h6.15a7.65,7.65,0,0,1,5.93,2.51,9.12,9.12,0,0,1,2.28,6.38,8,8,0,0,1-2.73,6.16,9.76,9.76,0,0,1-6.84,2.5h-4.79a40.67,40.67,0,0,1-36.58-21.53,46.51,46.51,0,0,1-5.36-22.46V73.3"/><path d="M1293.67,62v53.57a64.21,64.21,0,0,1-8.32,32.36,60.62,60.62,0,0,1-22.79,22.91,66.66,66.66,0,0,1-64.5,0,60.58,60.58,0,0,1-22.8-22.91,64.11,64.11,0,0,1-8.32-32.36,64.9,64.9,0,0,1,8.1-32.25,60,60,0,0,1,53.44-31.12,58.91,58.91,0,0,1,27.13,6.27,56.48,56.48,0,0,1,20.28,17.21V8.89A8.59,8.59,0,0,1,1284.78,0a8.29,8.29,0,0,1,6.27,2.51,8.89,8.89,0,0,1,2.39,6.38V59.94A7,7,0,0,1,1293.67,62Zm-39.89,94.93a45.15,45.15,0,0,0,16.53-17.09,49,49,0,0,0,6-24.27,51.23,51.23,0,0,0-.23-5.7,2.6,2.6,0,0,1-.23-1.14q-2.28-17.77-14.93-29.17t-30.65-11.4a46.13,46.13,0,0,0-23.59,6.15,44.14,44.14,0,0,0-16.64,17,49,49,0,0,0-6,24.28,48.91,48.91,0,0,0,6,24.27,44.78,44.78,0,0,0,16.64,17.09,45.35,45.35,0,0,0,23.59,6.27A44.75,44.75,0,0,0,1253.78,156.92Z"/><path d="M388.56,60.68a49.11,49.11,0,0,1,20.18,19.94Q416,93.73,416,112v59.26a8.57,8.57,0,0,1-8.66,8.66,8.64,8.64,0,0,1-6.38-2.51,8.33,8.33,0,0,1-2.51-6.15V112q0-20.28-11.28-30.88t-29.52-10.6a45.87,45.87,0,0,0-20.17,4.33,35.63,35.63,0,0,0-14.24,12,29.32,29.32,0,0,0-5.25,17v67.47a8.21,8.21,0,0,1-8.66,8.66,8.89,8.89,0,0,1-6.38-2.39,8.29,8.29,0,0,1-2.51-6.27V64.1a8.57,8.57,0,0,1,8.89-8.89,8.32,8.32,0,0,1,6.27,2.5A8.87,8.87,0,0,1,318,64.1v7.75a53.17,53.17,0,0,1,18.24-13.22,56.33,56.33,0,0,1,23.24-4.79A61,61,0,0,1,388.56,60.68Z"/><path d="M157,196.66a3.56,3.56,0,0,1-2,6.36c-.42,0-.85,0-1.29,0H23.29A23.29,23.29,0,0,1,0,179.77v-25a3.56,3.56,0,0,1,6-2.55,84.68,84.68,0,0,0,104,10.47,3.62,3.62,0,0,1,4.16.25l0,0Z"/><path d="M177.05,49.3V161.42a2.47,2.47,0,0,1-4,2l-34.16-26.9a2.48,2.48,0,0,1-.62-3.17A84.76,84.76,0,0,0,124,30.24,2.47,2.47,0,0,1,125.69,26h28.07A23.29,23.29,0,0,1,177.05,49.3Z"/><path d="M114.53,93.89A49.84,49.84,0,1,1,67.7,41.17,49.92,49.92,0,0,1,114.53,93.89Z"/></g></g></svg>